<svg width="75" height="75" viewBox="0 0 75 75" fill="none" xmlns="http://www.w3.org/2000/svg">
<rect width="75" height="75" rx="21" fill="#448AFF"/>
<path d="M19.3595 33.7117C19.2217 33.82 19.021 33.7148 19.037 33.5402C19.124 32.5933 19.3826 30.3973 20 29C20.4602 27.9586 20.853 27.2368 21.5 26.3C22.2105 25.2712 22.5517 24.8148 23.5 24C24.3636 23.258 24.9596 22.9624 26 22.5C27.4714 21.846 28.4164 21.7912 30 21.5C32.887 20.9691 34.5707 21.1894 37.5 21C40.6238 20.798 42.4105 21.0038 45.5 20.5C47.2768 20.2102 48.3155 20.1351 50 19.5C52.3513 18.6135 55.1811 16.189 56.1528 15.3174C56.2842 15.1996 56.493 15.2942 56.4856 15.4705C56.4311 16.757 56.1758 20.3786 55 22.5C53.9938 24.3155 53.2459 25.3774 51.5 26.5C49.9419 27.5019 48.7941 27.5389 47 28C45.4784 28.3911 43.1761 28.7358 42.5394 28.8276C42.4417 28.8417 42.37 28.9244 42.3685 29.0231L42.0002 52.9888C42.0001 52.9962 41.9997 53.0025 41.9987 53.01C41.9783 53.1611 41.7181 54.9959 41 56C40.3574 56.8984 39.8458 57.2895 39 58C37.9218 58.9057 37.2732 59.3986 36 60C35.0783 60.4354 33.6484 60.8052 33.0824 60.9427C32.9579 60.973 32.8398 60.8782 32.8398 60.7501V29.0558C32.8398 28.9437 32.7477 28.8538 32.6357 28.8578C31.712 28.8909 27.8667 29.081 25.5 30C22.9535 30.9889 20.3031 32.9708 19.3595 33.7117Z" fill="white"/>
</svg>
