<svg width="83" height="79" viewBox="0 0 83 79" fill="none" xmlns="http://www.w3.org/2000/svg">
<path d="M41 4C31.187 4 21.7759 7.8982 14.837 14.837C7.8982 21.7759 4 31.187 4 41C4 50.813 7.8982 60.2241 14.837 67.1629C21.7759 74.1018 31.187 78 41 78C50.813 78 60.2241 74.1018 67.1629 67.1629C74.1018 60.2241 78 50.813 78 41C78 31.187 74.1018 21.7759 67.1629 14.837C60.2241 7.8982 50.813 4 41 4Z" fill="#448AFF"/>
<path d="M7 1C6.20435 1 5.44129 1.31607 4.87868 1.87868C4.31607 2.44129 4 3.20435 4 4C4 4.79565 4.31607 5.55871 4.87868 6.12132C5.44129 6.68393 6.20435 7 7 7C7.79565 7 8.55871 6.68393 9.12132 6.12132C9.68393 5.55871 10 4.79565 10 4C10 3.20435 9.68393 2.44129 9.12132 1.87868C8.55871 1.31607 7.79565 1 7 1Z" fill="#448AFF"/>
<path d="M78 13C77.4696 13 76.9609 13.2107 76.5858 13.5858C76.2107 13.9609 76 14.4696 76 15C76 15.5304 76.2107 16.0391 76.5858 16.4142C76.9609 16.7893 77.4696 17 78 17C78.5304 17 79.0391 16.7893 79.4142 16.4142C79.7893 16.0391 80 15.5304 80 15C80 14.4696 79.7893 13.9609 79.4142 13.5858C79.0391 13.2107 78.5304 13 78 13Z" fill="#448AFF"/>
<path d="M15.5 76C15.1022 76 14.7206 76.158 14.4393 76.4393C14.158 76.7206 14 77.1022 14 77.5C14 77.8978 14.158 78.2794 14.4393 78.5607C14.7206 78.842 15.1022 79 15.5 79C15.8978 79 16.2794 78.842 16.5607 78.5607C16.842 78.2794 17 77.8978 17 77.5C17 77.1022 16.842 76.7206 16.5607 76.4393C16.2794 76.158 15.8978 76 15.5 76Z" fill="#448AFF"/>
<path d="M2.5 58C1.83696 58 1.20107 58.2634 0.732231 58.7322C0.26339 59.2011 0 59.837 0 60.5C0 61.163 0.26339 61.7989 0.732231 62.2678C1.20107 62.7366 1.83696 63 2.5 63C3.16304 63 3.79893 62.7366 4.26777 62.2678C4.73661 61.7989 5 61.163 5 60.5C5 59.837 4.73661 59.2011 4.26777 58.7322C3.79893 58.2634 3.16304 58 2.5 58Z" fill="#448AFF"/>
<path d="M82 63C81.7348 63 81.4804 63.1054 81.2929 63.2929C81.1054 63.4804 81 63.7348 81 64C81 64.2652 81.1054 64.5196 81.2929 64.7071C81.4804 64.8946 81.7348 65 82 65C82.2652 65 82.5196 64.8946 82.7071 64.7071C82.8946 64.5196 83 64.2652 83 64C83 63.7348 82.8946 63.4804 82.7071 63.2929C82.5196 63.1054 82.2652 63 82 63Z" fill="#448AFF"/>
<path d="M79.5 43C79.3674 43 79.2402 43.0527 79.1464 43.1464C79.0527 43.2402 79 43.3674 79 43.5C79 43.6326 79.0527 43.7598 79.1464 43.8536C79.2402 43.9473 79.3674 44 79.5 44C79.6326 44 79.7598 43.9473 79.8536 43.8536C79.9473 43.7598 80 43.6326 80 43.5C80 43.3674 79.9473 43.2402 79.8536 43.1464C79.7598 43.0527 79.6326 43 79.5 43Z" fill="#448AFF"/>
<path d="M42.5 0C42.3674 0 42.2402 0.052678 42.1464 0.146446C42.0527 0.240214 42 0.367392 42 0.5C42 0.632608 42.0527 0.759786 42.1464 0.853554C42.2402 0.947322 42.3674 1 42.5 1C42.6326 1 42.7598 0.947322 42.8536 0.853554C42.9473 0.759786 43 0.632608 43 0.5C43 0.367392 42.9473 0.240214 42.8536 0.146446C42.7598 0.052678 42.6326 0 42.5 0Z" fill="#448AFF"/>
<path d="M59.25 76C59.1837 76 59.1201 76.0263 59.0732 76.0732C59.0263 76.1201 59 76.1837 59 76.25C59 76.3163 59.0263 76.3799 59.0732 76.4268C59.1201 76.4737 59.1837 76.5 59.25 76.5C59.3163 76.5 59.3799 76.4737 59.4268 76.4268C59.4737 76.3799 59.5 76.3163 59.5 76.25C59.5 76.1837 59.4737 76.1201 59.4268 76.0732C59.3799 76.0263 59.3163 76 59.25 76Z" fill="#448AFF"/>
<g filter="url(#filter0_d_813_5)">
<rect x="26" y="26" width="30" height="30" rx="6" fill="white"/>
</g>
<path d="M35.147 38.5202C34.8407 38.5202 34.5527 38.6392 34.336 38.8553C34.1193 39.0714 34 39.3586 34 39.6642C34 39.9697 34.1193 40.2569 34.336 40.473L39.2771 45.4009C39.4938 45.617 39.7818 45.736 40.0881 45.736V46L40.11 45.736C40.4241 45.7297 40.7234 45.5945 40.9337 45.3657L48.6983 36.9179C48.9051 36.6927 49.0117 36.4005 48.999 36.095C48.9856 35.7894 48.8536 35.5086 48.6284 35.3016C48.4018 35.0953 48.1145 34.9848 47.8032 35.0017C47.4976 35.0151 47.2153 35.146 47.0084 35.3713L40.0528 42.9384L35.9588 38.8553C35.7414 38.6392 35.4534 38.5202 35.147 38.5202Z" fill="#448AFF"/>
<defs>
<filter id="filter0_d_813_5" x="22" y="26" width="38" height="38" filterUnits="userSpaceOnUse" color-interpolation-filters="sRGB">
<feFlood flood-opacity="0" result="BackgroundImageFix"/>
<feColorMatrix in="SourceAlpha" type="matrix" values="0 0 0 0 0 0 0 0 0 0 0 0 0 0 0 0 0 0 127 0" result="hardAlpha"/>
<feOffset dy="4"/>
<feGaussianBlur stdDeviation="2"/>
<feComposite in2="hardAlpha" operator="out"/>
<feColorMatrix type="matrix" values="0 0 0 0 0.266667 0 0 0 0 0.541176 0 0 0 0 1 0 0 0 0.25 0"/>
<feBlend mode="normal" in2="BackgroundImageFix" result="effect1_dropShadow_813_5"/>
<feBlend mode="normal" in="SourceGraphic" in2="effect1_dropShadow_813_5" result="shape"/>
</filter>
</defs>
</svg>
