<svg width="20" height="16" viewBox="0 0 20 16" fill="none" xmlns="http://www.w3.org/2000/svg">
<path d="M0 12.9209C0 12.5067 0.335786 12.1709 0.75 12.1709H19.25C19.6642 12.1709 20 12.5067 20 12.9209V12.9209C20 13.3351 19.6642 13.6709 19.25 13.6709H0.75C0.335787 13.6709 0 13.3351 0 12.9209V12.9209Z" fill="#448AFF"/>
<path d="M19.25 13.0002C19.25 14.2428 18.2426 15.2502 17 15.2502C15.7574 15.2502 14.75 14.2428 14.75 13.0002C14.75 11.7576 15.7574 10.7502 17 10.7502C18.2426 10.7502 19.25 11.7576 19.25 13.0002Z" fill="#D9D9D9" stroke="#448AFF" stroke-width="1.5"/>
<path d="M0 2.9209C0 2.50668 0.335786 2.1709 0.75 2.1709H19.25C19.6642 2.1709 20 2.50668 20 2.9209V2.9209C20 3.33511 19.6642 3.6709 19.25 3.6709H0.75C0.335787 3.6709 0 3.33511 0 2.9209V2.9209Z" fill="#448AFF"/>
<path d="M5.25 3.00019C5.25 4.24283 4.24264 5.25019 3 5.25019C1.75736 5.25019 0.75 4.24283 0.75 3.00019C0.75 1.75755 1.75736 0.750193 3 0.750193C4.24264 0.750193 5.25 1.75755 5.25 3.00019Z" fill="#D9D9D9" stroke="#448AFF" stroke-width="1.5"/>
</svg>
