<svg width="77" height="77" viewBox="0 0 77 77" fill="none" xmlns="http://www.w3.org/2000/svg">
<path d="M38.5 0C17.2362 0 0 15.169 0 33.88C0 44.2534 5.31101 53.5257 13.6566 59.7412C13.8697 64.472 13.1649 71.0044 6.88905 74.0162L6.87748 74.0223C6.59709 74.1332 6.3557 74.33 6.18527 74.5868C6.01484 74.8435 5.92341 75.148 5.92308 75.46C5.92308 75.8684 6.07909 76.2601 6.35678 76.5489C6.63448 76.8377 7.01112 77 7.40385 77C7.4392 77 7.47266 76.9942 7.50796 76.994C7.51568 76.994 7.52339 76.994 7.5311 76.994C14.7396 76.9459 20.8589 72.8945 25.0805 68.6142C26.4191 67.2559 28.2853 66.5875 30.1244 66.9479C32.8194 67.4807 35.6214 67.76 38.5 67.76C59.7638 67.76 77 52.591 77 33.88C77 15.169 59.7638 0 38.5 0Z" fill="#448AFF"/>
<circle cx="23" cy="33" r="6" fill="white"/>
<circle cx="39" cy="33" r="6" fill="white"/>
<circle cx="55" cy="33" r="6" fill="white"/>
</svg>
