<svg width="68" height="60" viewBox="0 0 68 60" fill="none" xmlns="http://www.w3.org/2000/svg">
<g clip-path="url(#clip0_2_2)">
<path d="M53 2.11267H15C8.09644 2.11267 2.5 6.84206 2.5 12.6761V47.3239C2.5 53.1579 8.09644 57.8873 15 57.8873H53C59.9036 57.8873 65.5 53.1579 65.5 47.3239V12.6761C65.5 6.84206 59.9036 2.11267 53 2.11267Z" stroke="#BCBCBD" stroke-width="5"/>
<path d="M14 15.2002C14 13.4328 15.6953 12.0002 17.7867 12.0002H33.2133C35.3047 12.0002 37 13.4328 37 15.2002C37 16.9675 35.3047 18.4001 33.2133 18.4001H17.7867C15.6953 18.4001 14 16.9675 14 15.2002Z" fill="#BCBCBD"/>
<path d="M14 28.7997C14 27.0324 15.6953 25.5997 17.7867 25.5997H49.2133C51.3047 25.5997 53 27.0324 53 28.7997C53 30.567 51.3047 31.9997 49.2133 31.9997H17.7867C15.6953 31.9997 14 30.567 14 28.7997Z" fill="#BCBCBD"/>
<path d="M14 42.4001C14 40.6328 15.6953 39.2 17.7867 39.2H49.2133C51.3047 39.2 53 40.6328 53 42.4001C53 44.1674 51.3047 45.6001 49.2133 45.6001H17.7867C15.6953 45.6001 14 44.1674 14 42.4001Z" fill="#BCBCBD"/>
</g>
<defs>
<clipPath id="clip0_2_2">
<rect width="68" height="60" fill="white"/>
</clipPath>
</defs>
</svg>
