<svg width="68" height="71" viewBox="0 0 68 71" fill="none" xmlns="http://www.w3.org/2000/svg">
<rect x="2.5" y="2.5" width="63" height="66" rx="12.5" stroke="#BCBCBD" stroke-width="5"/>
<path d="M14 17.9869C14 15.8955 15.6953 14.2002 17.7867 14.2002H33.2133C35.3047 14.2002 37 15.8955 37 17.9869V17.9869C37 20.0782 35.3047 21.7735 33.2133 21.7735H17.7867C15.6953 21.7735 14 20.0782 14 17.9869V17.9869Z" fill="#BCBCBD"/>
<path d="M14 34.0796C14 31.9883 15.6953 30.293 17.7867 30.293H49.2133C51.3047 30.293 53 31.9883 53 34.0796V34.0796C53 36.171 51.3047 37.8663 49.2133 37.8663H17.7867C15.6953 37.8663 14 36.171 14 34.0796V34.0796Z" fill="#BCBCBD"/>
<path d="M14 50.1734C14 48.0821 15.6953 46.3867 17.7867 46.3867H49.2133C51.3047 46.3867 53 48.0821 53 50.1734V50.1734C53 52.2647 51.3047 53.9601 49.2133 53.9601H17.7867C15.6953 53.9601 14 52.2647 14 50.1734V50.1734Z" fill="#BCBCBD"/>
</svg>
